<?xml version="1.0" standalone="no"?><!DOCTYPE svg PUBLIC "-//W3C//DTD SVG 1.1//EN" "http://www.w3.org/Graphics/SVG/1.1/DTD/svg11.dtd"><svg t="1687452591775" class="icon" viewBox="0 0 1024 1024" version="1.1" xmlns="http://www.w3.org/2000/svg" p-id="1799" xmlns:xlink="http://www.w3.org/1999/xlink" width="200" height="200"><path d="M170.666667 477.866667H34.133333v68.266666h136.533334z m682.666666 0v68.266666h136.533334v-68.266666zM546.133333 34.133333h-68.266666v136.533334h68.266666z m-68.266666 955.733334h68.266666v-136.533334h-68.266666zM293.546667 245.76L197.973333 150.186667 150.186667 197.973333l95.573333 95.573334z m433.493333 529.066667l98.986667 98.986666 47.786666-47.786666-98.986666-98.986667z m146.773333-576.853334l-47.786666-47.786666-95.573334 95.573333 47.786667 47.786667zM150.186667 826.026667l47.786666 47.786666 98.986667-98.986666-47.786667-47.786667zM512 238.933333a273.066667 273.066667 0 1 0 273.066667 273.066667 273.066667 273.066667 0 0 0-273.066667-273.066667z m0 477.866667a204.8 204.8 0 1 1 204.8-204.8 204.8 204.8 0 0 1-204.8 204.8z" p-id="1800"></path></svg>